<svg xmlns="http://www.w3.org/2000/svg" xml:space="preserve" width="503.167" height="435.756"
            viewBox="0 0 133.13 115.294">
            <g style="display:inline">
              <path d="M96.04 96.915H29.934L46.46 68.29l16.527-28.625L79.513 68.29z"
                style="display:inline;fill:none;stroke:#000;stroke-width:.264583"
                transform="matrix(1 0 0 -1 3.578 154.694)" /><text xml:space="preserve" x="90.516" y="138.326"
                style="font-style:normal;font-variant:normal;font-weight:700;font-stretch:normal;font-size:12.7px;font-family:&quot;Liberation Mono&quot;;-inkscape-font-specification:&quot;Liberation Mono Bold&quot;;letter-spacing:2.64583px;fill:#000;stroke:none;stroke-width:.264583"
                transform="translate(-38.435 -62.03)">
                <tspan x="90.516" y="138.326"
                  style="font-size:12.7px;stroke-width:.264583;-inkscape-font-specification:&quot;Liberation Mono Bold&quot;;font-family:&quot;Liberation Mono&quot;;font-weight:700;font-style:normal;font-stretch:normal;font-variant:normal;fill:#000;stroke:none">
                  CIA</tspan>
              </text>
            </g>
            <g style="display:inline">
              <path
                d="M138.508 145.02a5.968 5.968 0 0 0-5.463 3.927 5.978 5.978 0 0 0 3.08 7.449 5.952 5.952 0 0 0 7.672-2.426.485.485 0 1 0-.84-.482 4.972 4.972 0 0 1-6.423 2.03 4.998 4.998 0 0 1-2.577-6.24 4.975 4.975 0 0 1 5.973-3.118.486.486 0 0 0 .253-.938 5.918 5.918 0 0 0-1.675-.202zm3.166 3.09a.395.395 0 0 0-.28.117l-2.754 2.76-1.096-1.099a.395.395 0 0 0-.56 0l-.67.672a.397.397 0 0 0 0 .561l1.377 1.38.67.671a.395.395 0 0 0 .56 0l.67-.67 3.033-3.042a.397.397 0 0 0 0-.562l-.67-.671a.394.394 0 0 0-.28-.117z"
                style="color:#000;font-style:normal;font-variant:normal;font-weight:400;font-stretch:normal;font-size:medium;line-height:normal;font-family:sans-serif;font-variant-ligatures:normal;font-variant-position:normal;font-variant-caps:normal;font-variant-numeric:normal;font-variant-alternates:normal;font-feature-settings:normal;text-indent:0;text-align:start;text-decoration:none;text-decoration-line:none;text-decoration-style:solid;text-decoration-color:#000;letter-spacing:normal;word-spacing:normal;text-transform:none;writing-mode:lr-tb;direction:ltr;text-orientation:mixed;dominant-baseline:auto;baseline-shift:baseline;text-anchor:start;white-space:normal;shape-padding:0;clip-rule:nonzero;display:inline;overflow:visible;visibility:visible;isolation:auto;mix-blend-mode:normal;color-interpolation:sRGB;color-interpolation-filters:linearRGB;solid-color:#000;solid-opacity:1;vector-effect:none;fill:#000;fill-opacity:1;fill-rule:evenodd;stroke:none;stroke-width:.939005;stroke-linecap:round;stroke-linejoin:round;stroke-miterlimit:4;stroke-dasharray:none;stroke-dashoffset:0;stroke-opacity:1;marker:none;color-rendering:auto;image-rendering:auto;shape-rendering:auto;text-rendering:auto;enable-background:accumulate"
                transform="translate(-38.435 -62.03)" /><text xml:space="preserve" x="124.347" y="166.897"
                style="font-style:normal;font-variant:normal;font-weight:700;font-stretch:normal;font-size:3.88056px;font-family:&quot;Liberation Mono&quot;;-inkscape-font-specification:&quot;Liberation Mono Bold&quot;;display:inline;fill:#000;stroke:none;stroke-width:.264583"
                transform="translate(-38.435 -62.03)">
                <tspan x="124.347" y="166.897"
                  style="font-style:normal;font-variant:normal;font-weight:700;font-stretch:normal;font-size:3.88056px;font-family:&quot;Liberation Mono&quot;;-inkscape-font-specification:&quot;Liberation Mono Bold&quot;;stroke-width:.264583;fill:#000;stroke:none">
                  Availability</tspan>
              </text>
              <path d="M96.04 96.915H29.934L46.46 68.29l16.527-28.625L79.513 68.29z"
                style="display:inline;fill:none;stroke:#000;stroke-width:.264583" transform="translate(36.86 18.246)" />
            </g>
            <g style="display:inline">
              <g style="display:inline;stroke-width:5.77211" transform="matrix(.046 0 0 .046 23.277 83.154)">
                <g fill="#050500" style="stroke-width:5.77211">
                  <path fill-opacity=".796"
                    d="M458.75 1012.137c5.44-2.581 13.393-15.458 13.393-21.682 0-4.407-3.996-8.97-11.147-12.728-9.301-4.888-11.469-7.33-7.596-8.559 2.4-.762 9.375 2.42 22.314 10.177 19.235 11.533 21.324 12.048 27.229 6.713 4.266-3.854 9.59-14.135 10.222-19.736.436-3.866.33-4.044-4.585-7.722-2.767-2.07-11.967-7.744-20.444-12.608-8.477-4.864-15.836-9.514-16.352-10.332-1.384-2.195.922-4.458 4.543-4.458 2.971 0 4.24.686 26.599 14.383 11.888 7.282 21.183 11.866 24.062 11.866 5.754 0 16.405-15.711 16.405-24.2 0-6.963-5-10.8-34.18-26.236-7.712-4.08-14.437-8.076-14.945-8.88-1.435-2.276.984-4.433 4.97-4.433 4.363 0 14.408 4.794 25.106 11.983 17.749 11.926 22.537 13.507 28.936 9.552 5.605-3.464 12.327-16.434 11.193-21.596-.618-2.814-5.206-7.463-9.361-9.487-1.547-.753-15.047-8.569-30-17.367-37.161-21.866-68.42-39.654-79.87-45.45l-9.558-4.837-3.86 2.674c-5.982 4.146-8.09 7.204-8.823 12.802-1.164 8.882-5.25 28.758-7.638 37.152-2.648 9.307-5.24 12.333-12.25 14.295-10.723 3.003-37.033-3.664-45.489-11.526-7.216-6.71-7.709-15.3-2.245-39.133 5.214-22.748 10.46-41.243 12.475-43.99.975-1.33 7.095-6.012 13.6-10.407 6.505-4.395 12.106-8.27 12.447-8.61 1.486-1.487-11.929-6.884-16.085-6.472-.575.057-9.646 5.723-20.156 12.59-24.387 15.934-40.108 25.548-47.283 28.916l-5.672 2.662-13.078-3.225c-10.882-2.683-56.523-15.556-72.87-20.552l-4.48-1.37-2.201 4.37c-8.785 17.433-17.908 51.759-20.225 76.088-1.364 14.326-1.72 55.846-.49 57.07.76.754 31.668 9.717 74.729 21.669l6.29 1.746 3.298-4.59c1.814-2.525 4.987-5.709 7.052-7.075 3.25-2.15 4.484-2.43 9.162-2.07 6.288.483 13.272 3.575 21.312 9.435l5.592 4.077 5.437-5.812c7.614-8.14 10.477-9.347 18.871-7.96 7.022 1.16 13.918 3.795 16.839 6.436.976.883 2.625 3.293 3.665 5.355 1.04 2.063 2.022 3.899 2.183 4.08.16.181 3.33-1.19 7.042-3.047 5.544-2.774 7.773-3.376 12.483-3.376 10.433 0 22.45 7.564 27.113 17.063 1.34 2.732 2.632 5.643 2.868 6.469.301 1.05 1.986 1.661 5.623 2.036 10.209 1.054 21.975 9.48 26.478 18.963 3.37 7.094 2.709 13.636-2.093 20.71-2.824 4.162-2.37 5.613 2.533 8.116 4.018 2.052 6.713 2.07 10.913.077z"
                    style="stroke-width:28.7562" transform="translate(-190.608 -756.827)" />
                  <path
                    d="M414.423 1041.287c6.824-6.824 24.907-43.24 24.907-50.158 0-3.935-2.108-7.616-6.53-11.402-5.542-4.743-14.334-6.844-18.75-4.48-.946.506-8.09 11.833-15.876 25.17-12.227 20.944-14.156 24.791-14.156 28.234 0 5.385 3.352 8.413 12.836 11.595 8.43 2.83 15.37 3.24 17.569 1.041zm-38.374-25.005c9.138-12.107 30.922-47.898 30.826-50.647-.114-3.277-5.301-10.962-9.205-13.637-5.292-3.626-18.643-4.957-22.613-2.254-.546.372-7.19 12.23-14.766 26.351-16.029 29.88-16.238 30.654-9.789 36.198 4.115 3.537 18.264 10.982 19.922 10.482.516-.155 3.047-3.077 5.625-6.493zm-38.123-17.667c3.758-1.31 9.087-9.238 18.454-27.452 4.416-8.587 7.013-14.746 7.013-16.632 0-6.21-12.946-14.892-22.205-14.892h-4.96l-13.241 19.828c-12.63 18.913-13.218 20.001-12.736 23.59.277 2.07 1.307 4.855 2.287 6.188 2.265 3.081 10.56 7.616 16.636 9.094 6.06 1.474 5.375 1.453 8.752.276zm-34.383-23.585c4.364-4.461 10.89-14.073 11.673-17.194.661-2.633-2.345-8.451-6.35-12.29-4.2-4.025-9.046-5.907-15.215-5.907-6.257 0-8.924 1.968-15.654 11.55-5.205 7.412-5.83 11.09-2.733 16.1 3.424 5.54 14.048 11.628 20.396 11.688 3.475.032 4.484-.473 7.883-3.947zm268.082-38.097c28.323-7.384 51.62-13.959 52.46-14.805 2.807-2.827 4.209-57.254 1.888-73.286-2.124-14.675-8.51-33.496-18.44-54.355-4.903-10.296-6.244-12.402-7.623-11.968-.92.29-19.063 4.952-40.316 10.36l-38.643 9.835-26.982-16.28c-14.84-8.954-32.226-19.28-38.635-22.944l-11.653-6.663H424.78l-6.084 4.104c-3.346 2.257-14.504 10.48-24.797 18.273-21.475 16.26-19.077 12.599-24.332 37.154-4.219 19.71-5.571 30.433-5.062 40.13.51 9.724 1.709 11.787 8.89 15.3 4.701 2.3 6.46 2.633 13.863 2.624 5.77-.007 9.582-.498 11.93-1.536 3.158-1.395 3.648-2.15 5.751-8.865 1.265-4.038 4.093-15.628 6.285-25.758l3.985-18.417 10.159-7.13c5.587-3.921 10.42-7.13 10.74-7.13 1.64 0 126.074 72.149 129.028 74.812 8.288 7.472 9.55 17.94 3.58 29.701-4.048 7.974-10.753 15.246-14.807 16.056l-3.015.603v7.952c0 6.332.26 7.852 1.279 7.461.703-.27 9.457-2.623 19.453-5.228z"
                    style="stroke-width:28.7562" transform="translate(-190.608 -756.827)" />
                </g>
              </g><text xml:space="preserve" x="61.127" y="166.897"
                style="font-style:normal;font-variant:normal;font-weight:700;font-stretch:normal;font-size:3.88056px;font-family:&quot;Liberation Mono&quot;;-inkscape-font-specification:&quot;Liberation Mono Bold&quot;;display:inline;fill:#000;stroke:none;stroke-width:.264583"
                transform="translate(-38.435 -62.03)">
                <tspan x="61.127" y="166.897"
                  style="font-style:normal;font-variant:normal;font-weight:700;font-stretch:normal;font-size:3.88056px;font-family:&quot;Liberation Mono&quot;;-inkscape-font-specification:&quot;Liberation Mono Bold&quot;;stroke-width:.264583;fill:#000;stroke:none">
                  Integrity</tspan>
              </text>
              <path d="M96.04 96.915H29.934L46.46 68.29l16.527-28.625L79.513 68.29z"
                style="display:inline;fill:none;stroke:#000;stroke-width:.264583"
                transform="translate(-29.704 18.246)" />
            </g>
            <g style="display:inline">
              <path d="M96.04 96.915H29.934L46.46 68.29l16.527-28.625L79.513 68.29z"
                style="fill:none;stroke:#000;stroke-width:.264583" transform="translate(3.578 -39.4)" />
              <g style="display:inline;stroke-width:4.15753">
                <path
                  d="M1124.664 644.322H184.779c-80.353 0-145.493 65.139-145.493 145.493v693.711c0 80.354 65.139 145.493 145.493 145.493h939.885c80.353 0 145.493-65.139 145.493-145.493V789.814c0-80.353-65.14-145.492-145.493-145.492zm-407.013 505.003a64.672 64.672 0 0 1 1.801 15.117v124.451c0 35.832-29.317 65.148-65.148 65.148-35.832 0-65.149-29.317-65.149-65.148v-124.451c0-5.356.668-10.562 1.902-15.551-35.921-21.626-59.951-60.993-59.951-105.976 0-68.271 55.345-123.615 123.615-123.615 68.271 0 123.615 55.344 123.615 123.615.001 45.288-24.358 84.88-60.685 106.41zM800.192 53.478c-46.481-16.909-94.021-24.534-142.199-24.459-48.178-.075-102.262 7.55-148.743 24.459-216.571 78.787-295.237 273.21-284.399 530.585h179.785c-10.095-177.358 35.728-296.867 147.728-347.915 64.887-29.574 139.826-29.574 204.713 0 112 51.047 157.823 170.556 147.728 347.915h179.785c10.839-257.375-67.826-451.798-284.398-530.585Z"
                  style="stroke-width:4.15753" transform="matrix(.008 0 0 .008 61.216 22.051)" />
              </g><text xml:space="preserve" x="87.496" y="109.25"
                style="font-style:normal;font-variant:normal;font-weight:700;font-stretch:normal;font-size:3.88056px;font-family:&quot;Liberation Mono&quot;;-inkscape-font-specification:&quot;Liberation Mono Bold&quot;;display:inline;fill:#000;stroke:none;stroke-width:.264583"
                transform="translate(-38.435 -62.03)">
                <tspan x="87.496" y="109.25"
                  style="font-style:normal;font-variant:normal;font-weight:700;font-stretch:normal;font-size:3.88056px;font-family:&quot;Liberation Mono&quot;;-inkscape-font-specification:&quot;Liberation Mono Bold&quot;;stroke-width:.264583;fill:#000;stroke:none">
                  Confidentiality</tspan>
              </text>
            </g>
          </svg>
